<mxfile host="Electron" modified="2024-04-17T18:54:13.682Z" agent="Mozilla/5.0 (Windows NT 10.0; Win64; x64) AppleWebKit/537.36 (KHTML, like Gecko) draw.io/22.1.21 Chrome/120.0.6099.109 Electron/28.1.0 Safari/537.36" etag="MliJjueF6x1vrtEMauKK" version="22.1.21" type="device">
  <diagram name="Page-1" id="6f7wbPanEzozHGWUEkWh">
    <mxGraphModel dx="4100" dy="1338" grid="1" gridSize="10" guides="1" tooltips="1" connect="1" arrows="1" fold="1" page="1" pageScale="1" pageWidth="2000" pageHeight="1125" math="0" shadow="0">
      <root>
        <mxCell id="0" />
        <mxCell id="1" parent="0" />
        <mxCell id="J9UTsLMrfqw77RfqFT6b-1" value="" style="group;fontStyle=0;fontSize=30;strokeWidth=2;" parent="1" vertex="1" connectable="0">
          <mxGeometry x="-1296" y="81" width="592" height="963.4" as="geometry" />
        </mxCell>
        <mxCell id="giD-rON_7XyDce0CMv7w-1" value="start" style="ellipse;whiteSpace=wrap;html=1;fontStyle=0;fontSize=30;container=0;strokeWidth=2;" parent="J9UTsLMrfqw77RfqFT6b-1" vertex="1">
          <mxGeometry x="151.58064516129033" width="286.4516129032258" height="154.144" as="geometry" />
        </mxCell>
        <mxCell id="giD-rON_7XyDce0CMv7w-2" value="radius" style="shape=parallelogram;perimeter=parallelogramPerimeter;whiteSpace=wrap;html=1;fixedSize=1;fontSize=30;fontStyle=0;container=0;strokeWidth=2;" parent="J9UTsLMrfqw77RfqFT6b-1" vertex="1">
          <mxGeometry x="151.58064516129033" y="231.216" width="286.4516129032258" height="115.608" as="geometry" />
        </mxCell>
        <mxCell id="giD-rON_7XyDce0CMv7w-3" value="" style="edgeStyle=orthogonalEdgeStyle;rounded=0;orthogonalLoop=1;jettySize=auto;html=1;fontStyle=0;fontSize=30;strokeWidth=2;" parent="J9UTsLMrfqw77RfqFT6b-1" source="giD-rON_7XyDce0CMv7w-1" target="giD-rON_7XyDce0CMv7w-2" edge="1">
          <mxGeometry relative="1" as="geometry" />
        </mxCell>
        <mxCell id="giD-rON_7XyDce0CMv7w-4" value="area = radius * radius * (22/7)" style="whiteSpace=wrap;html=1;fontSize=30;fontStyle=0;container=0;strokeWidth=2;" parent="J9UTsLMrfqw77RfqFT6b-1" vertex="1">
          <mxGeometry y="423.896" width="592" height="115.608" as="geometry" />
        </mxCell>
        <mxCell id="giD-rON_7XyDce0CMv7w-5" value="" style="edgeStyle=orthogonalEdgeStyle;rounded=0;orthogonalLoop=1;jettySize=auto;html=1;fontStyle=0;fontSize=30;strokeWidth=2;" parent="J9UTsLMrfqw77RfqFT6b-1" source="giD-rON_7XyDce0CMv7w-2" target="giD-rON_7XyDce0CMv7w-4" edge="1">
          <mxGeometry relative="1" as="geometry" />
        </mxCell>
        <mxCell id="giD-rON_7XyDce0CMv7w-6" value="area" style="shape=parallelogram;perimeter=parallelogramPerimeter;whiteSpace=wrap;html=1;fixedSize=1;fontSize=30;fontStyle=0;container=0;strokeWidth=2;" parent="J9UTsLMrfqw77RfqFT6b-1" vertex="1">
          <mxGeometry x="151.58064516129033" y="616.576" width="286.4516129032258" height="115.608" as="geometry" />
        </mxCell>
        <mxCell id="giD-rON_7XyDce0CMv7w-7" value="" style="edgeStyle=orthogonalEdgeStyle;rounded=0;orthogonalLoop=1;jettySize=auto;html=1;fontStyle=0;fontSize=30;strokeWidth=2;" parent="J9UTsLMrfqw77RfqFT6b-1" source="giD-rON_7XyDce0CMv7w-4" target="giD-rON_7XyDce0CMv7w-6" edge="1">
          <mxGeometry relative="1" as="geometry" />
        </mxCell>
        <mxCell id="giD-rON_7XyDce0CMv7w-8" value="end" style="ellipse;whiteSpace=wrap;html=1;fontStyle=0;fontSize=30;container=0;strokeWidth=2;" parent="J9UTsLMrfqw77RfqFT6b-1" vertex="1">
          <mxGeometry x="152.7741935483871" y="809.2560000000002" width="286.4516129032258" height="154.144" as="geometry" />
        </mxCell>
        <mxCell id="giD-rON_7XyDce0CMv7w-9" value="" style="edgeStyle=orthogonalEdgeStyle;rounded=0;orthogonalLoop=1;jettySize=auto;html=1;fontStyle=0;fontSize=30;strokeWidth=2;" parent="J9UTsLMrfqw77RfqFT6b-1" source="giD-rON_7XyDce0CMv7w-6" target="giD-rON_7XyDce0CMv7w-8" edge="1">
          <mxGeometry relative="1" as="geometry" />
        </mxCell>
        <mxCell id="J9UTsLMrfqw77RfqFT6b-2" style="edgeStyle=orthogonalEdgeStyle;rounded=0;orthogonalLoop=1;jettySize=auto;html=1;exitX=0.5;exitY=1;exitDx=0;exitDy=0;fontStyle=0;fontSize=30;strokeWidth=2;" parent="J9UTsLMrfqw77RfqFT6b-1" source="giD-rON_7XyDce0CMv7w-4" target="giD-rON_7XyDce0CMv7w-4" edge="1">
          <mxGeometry relative="1" as="geometry" />
        </mxCell>
        <mxCell id="nMg4LRpKPiFhYROVvIby-1" value="" style="shape=image;verticalLabelPosition=bottom;labelBackgroundColor=default;verticalAlign=top;aspect=fixed;imageAspect=0;image=data:image/png,iVBORw0KGgoAAAANSUhEUgAABCIAAAEfCAYAAACUDWeHAAAAAXNSR0IArs4c6QAAAARnQU1BAACxjwv8YQUAAAAJcEhZcwAAEnQAABJ0Ad5mH3gAAFyOSURBVHhe7d2FdxTJ2gbw7x9gJq6EQAKBIMET3N3d3d3d3Z3FYfFd3N1tscVdgzuBCPFkng/29u7CUklGunt6Js/vnOece/aSruqe6empd7qr/g9ERERERERERCphIYKIiIiIiIiIVMNCBBERERERERGphoUIIiIiIiIiIlINCxFEREREREREpBoWIoiIiIiIiIhINSxEEBEREREREZFqWIggIiIiIiIiItWwEEFEREREREREqmEhgoiIiIiIiIhUw0IEEREREREREamGhQgiIiIiIiIiUg0LEUREREREREQmMyA5MQ7R4e/x8tlTPAkNxZOnT3H7whHs3rMP+4+exdV7D/Dw0WM8fvwYoU+f4+W7z4hOSERiYuLXv06/WIggIiIiIiIiMoIhKR7RYU9w9egu/LZ0NiaNHID2lYLg7eYGt7/iigwZMvwbnQOcXP7+/77GOxDFarVAlwFjMXf1Dhw98yduPHyNzzEJSE5HlQkWIoiIiIiIiIhSkvAZT/7cg6VjOqJqbvcfCw2yRA8nNz8E1+qKCb/ux+XHHxCTLLVtp1iIICIiIiIiIvpBHJ5f2IIZ3asjn7cnPNxd4eSgExQR5Iwejs6ucPfMiEwBRVG78xRsvfIO8VKP7AkLEURERERERETfJIXj0el1GNe6DPJkywQPYcFApejckSl7fpRr1AMT1hzHvY/2U5JgIYKIiIiIiIjSOQPinh7EtBZVEJzdTVwYsGr0CKjaEeNXn0ToF9ufTIKFCCIiIiIiIkq3kj/+iQ1TuqBaVqUfvZAjOmQq2xPz997Cx0RpB2wQCxFERERERESULkVfmof6WUQDfo1H74mc9cZjT6htPq7BQgQRERERERGlM5/wx+x2KOotGOTbTHRwcC+Kbquu4rONPa3BQgQRERERERGlH5+vYt2QWsjlLBrcGx+doxvc3H6Og+DfKhp9IGoMWoOL75OkHdQ+FiKIiIiIiIgoXUh6tgeTWxdDJtGAPrV4FEHF+u3QZ+RULFy3C8cv3cC90Od49vQJQkNDpTzB02fP8OjOdVw4vgcbVy7A9LED0aVFbeS0sOiRdrxQuNEwrLoRLe2ptrEQQURERERERHYv6c0xTKmbzaQ7FrwCC6Bk1V5YePQBXofHwfQnIAxIjP6I0CtH8NvU7qhdIh8CfMRtyRHPUv2w6UGM1LZ2sRBBREREREREds3w6ShGlskIR8Hg/efo4RFQBA2GrcbZF7HSFmSS8A7Xdk5A/ZyOcNArsUqHHu65O+C3UG0vqcFCBBEREREREdmvt7vRr3gA3HWigft/o0e2WmOwS+nVKAxfcHfHODQMchH0wdI4wbdAMyy7q91iBAsRREREREREZJ/i72B1rzLwEQ7Y/xPH3Gg09SjeJEt/q4bIK1jRtQS8Rf2xKE7IVq4jlt6Q+Y4OmbAQQURERERERHYoCpd/aYwAI+6E8MhVEe0XX4VVpnpMeozfulRAXh8nYd/Mz7e7O8Zh30s1KyvGYSGCiIiIiIiI7E7EgV4o5CQaoP8Yt7x1MfHkJ+mvrCUCl5Z1QuksDsI+mh9n5Om8GS9Nn2VTUSxEEBERERERkV1JerIJXYL0goH5f+OCupvCpb+yNgNujMwt6KOFcQxE/Wk3kCS1ogUsRBAREREREZEdeYVNHYKROc27ITKh1qyL+CL9lSYYnmNbz4JGru5hQpxLY9zZKKkR62MhgoiIiIiIiOzG+yPjUS2TYDD+Q/TI034L3kp/oylxFzGpopegz5bEFbmqj8Rxjdz8wUIEERERERER2YfkKxgdnPakj+5V5+Gulp5V+I+4e7+iVaBO2Hezo8uGJguvW2dCzv9gIYKIiIiIiIjsQvThbsgmGoR/Fwf/8uh+QAvD8dTE4vLc5ijoJt4Hs+NfF4tDpSasiIUIIiIiIiIisn2J1zC9cS44iAbg38Wr3q94mij9jZYl3cW04sZMuGla/HudtfrElSxEEBERERERkc1LONoGHoKB94/xQeczydJfaF/k3g4I9hDth/lxCemO9U+su54nCxFERERERERk4+JwbkQh6AQD7//Gu1AjDJ+xFL/vOYxT52/g2ac4aRsaFHcHSxv7CffDkvh3Ofr1iFkPCxFERERERERk215twYDyPsJBd2pxzFIY5eq0xqB523D+2RdY9z4BsYg97ZFF0HeLkqMr9oRZb29ZiCAiIiIiIiKb9mljQ2R3FAy4jY4eGQvWxYAl1zSxqsQP4s9jXIPccBb229xkQ5NF92Gth1RYiCAiIiIiIiIblozzveV6fMEDxXttxltpy9qQiNBVzeEn7K/5cai0wmr7yUIEERERERER2bD32NDEWzjYNi/uqDL7BuKlrWvC3THILeyrBXFvhC3h0vZVxkIEERERERER2azkd8cwpryHeLBtZhy8c6P55o9SCxqQdAkjQlyEfTU7+nzovu25VZbyZCGCiIiIiIiIbFb4uamo6CYYaFsYl0pzcVczC2pE4+Kc5ghyEvfV3GRuvAKPrTBnJQsRREREREREZKMMeLapBdwFg2yL45AHrX7XzmwRMZdnooa3oJ+WxLMldkVKDaiIhQgiIiIiIiKyUQm4NqMkdKJBthwpPAevpZasLuY4egcK+mhRsmPwVfVviWAhgoiIiIiIiGyUwoWIfANxQjPreT7H1CBBHy1KVnTc9VnavnpYiCAiIiIiIiIbFYHN9WWexPG76PK0wbIbVnh2QSgKe9tlFPbT/GRB/flXESu1oBYWIoiIiIiIiMhGvceCENEAW6Y4FcXQIy+tsrLEz+JxeXIRcT/Njh+qj96DJyqvVcpCBNmemOe4sGsxRnWsiVp1G6JJ85Zo2fLntOnSB0PGTMf5L9LfERERERGRnfmENZX1ggG2XMmKbkeeI0FqzbqScHdxZTgI+2lunFGoyxrcVHnMxEIE2ZRPN7Zjaocy8NeLTiJRdMjf/zAipL8nIiIiIiJ7EoczQ/MIxgHyxLFAC8w88hKJUmvWFnVtGgoJ+mlR8o7D+XCpAZWwEEE2I+nqJJTI7Gr6RDS+lTFsx3NYYXlcIiIiIiJSVCKuTS0mHgfIEH3e1lh06ZPUlvV9vqpAIcKpDlY8TJZaUAcLEWQjXmJD2+ziEyfN6BHUdTveSVsiIiIiIiL78fHwEAQ7iMYBlkdXYCCOaGWuShjw6YoChQh9Bcy9oe49HyxEkA0w4NGyzghxE5w0RkZfbiaua+V+KiIiIiIiks/nMxhXRpmVMzwbbESY1Iz1KVeImHNd3VkwWIgg7Xu7GnXdBSeMCdGVnY5r2phhhoiIiIiIZBWPEz2yCscBlkSfqSharnsrtaEFLEQQqSQJl4bJMPlMsfH4U+UlaYiIiIiISB3JNyahXpCreCxgZlzKT8f1GKkBTWAhgkgVyY/Xo1thZ/EJY0o8GmOTdu6pIiIiIiIiWUXieN+c4rGAOXHJi+7HtfZLpnKFiHm3kqQ21MFCBGlYJPZ2zAUn0clicopi1lNps0REREREZH/C9qJ3BX84CMcDpiQjKo89gvfSZrUkQolVM3y6YNdrqQGVsBBBmvXlxCAU0AlOFLOSG2PuSBsmIiIiIiL79GIjOhYIgLezaExgRDzyoFqPRbgaLW1PY97s74pMon5bEJfKc3ElSmpAJSxEkDa9P4gxVX2FJ4p5yYYhN6RtExERERGR/Xp/Hit610Bhf9PmjHDMXgV9lp7DB4O0Hc1JwKUJhYV9Nz++qDJiN56o/BQKCxGkQbE4PSg/PPWiE8XcZMEAFiKIiIiIiNKJBLw6vQy9K2WFg14Pvd4Bjk66f8YHLq4ucHZyhIODIzyzFkDV7rOw81my9LdaFYMTA3J8N8aRI35ouuIB4qQW1MJCBGnPu23omF10klgSH3Q8qvbpRURERERE1pWIiHfPcPfSUWxdPgsThvfDwNFTMX/ZWmzefRwXbz9HpLrzNFrgI5aVFI11LElWdNz1Wdq+eliIII2JxLmpNeAjPEksiSfqr3ohtUFEREREROmPAcnJSUhKSkayZh+/SM0NjMglGutYkiKY8VjavIpYiCBN+bipqeyTr/wvGVF/+aOvHz1EREREREQ26PUGtPITjXUsSNaOOBQrbV9FLESQdhiuYrjsFb6/44N6i+7AZu66IiIiIiIi+kcSnu0ciJJuorGOmdFlQfk+v+OZFX6tZSGCNCIZD9Z0RH5HwQkiS9xQedYNJEqtERERERER2Y532NG3IvzknNDfMQQDD7z7OhJTHwsRpA0fN6BRVr34BJEljig6/BgipOaIiIiIiIhsRuJBNHIVjXMsiFNN/Kb+PJV/YSGCNCAGx/rmEp8cskWPwKZzcO4TZ4kgIiIiIiIbc3ssgoTjHPPjVWkJrDWdPwsRZHUxl+ahYVbxySFn9EGdsPFxvNQqERERERGRLYjC1Tm15F1Z0Lschux6I21ffSxEkJWFYU2VXHATnRxyx6E8ljyywpSwRERERERE5oo4jAFlvMRjHDOjCx6Ly1acQI+FCLKqpMtjEawTnxyyR1cKix7HSS0TERERERFpX+RvVeAgGt+YG5cAlJn7XNq6dbAQQdbz8RBGlHETnxxKRFcCvzzioxlERERERGQrPmFv95zi8Y2ZcS05BPvfSZu3EhYiyEqicX5SGTgJTgzl4oQ6ax5ZZXkaIiIiIiIiUxnuzUfrwh6CsY258Ua9tW+lrVsPCxFkFYan69AmQHRiKJvsfQ5xCU8iIiIiIrIBBtwcWwAugnGNedEjoM4EnImRNm9FLESQ+gyvsG9EBWQUnhzKJnvvfQiTukFERERERKRVSU83okOgeFxjXnzReke4tHXrYiGCVPd5bxfkdxKdGMone++9+Cj1g4iIiIiISJuScXFAGQS4iMc1pscDpQdpZyzEQgSpK+4U+uYUnRjqJHuf/fgkdYWIiIiIiEiTwraila94TGNOPEIG4aCGbg1nIYJUlIgHK1sgm+DEUCu6UjPxQOoNERERERGR9kThxJiayKoXj2lMjmc5DN/3UlOT9rMQQer5tBnNgr2hE50casWhJrZrYHIWIiIiIiIiobCNaOirE49nzEjWDjs1N08eCxGkkiRcHlsEesGJoWocamFbtNQlIiIiIiIiLTG8xt5BxeAsGsuYkUx1f8ENDf4Qy0IEqeLL+amo7CE+OVSNa2PsYiGCiIiIiIg0KO7MEIT4uYjHMibGs+wQHI2SNqwxLESQ8uIuYnKtXDKuf2tBnGriN85WSUREREREWhN7E0tb5JDlUXadXx3MuRIrbVh7WIggxX3Y0hp+gpPDKnEoj0XPpY4RERERERFpQjJuTisNV9EYxsToczTE9BNvkSRtWYtYiCBlRf6BKVW9hSeIVaIvgrEXE6TOERERERERWV/s/VVokVUwfjExuiyVMGjzY00XIb5hIYIUFI4DvQvDSXCCWC0OwRhyNELqHxERERERkZUl38PierksvhtC5x6AYiNO4ou0WS1jIYIUk3C6N7IJThCrxqk4Rp6IlHpIRERERERkTYm4t6oj8jsKxi6mxNEHFcefQrhB2qzGsRBByjC8xsb22cUniTWjL4h++z5KnSQiIiIiIrIew52ZKOssGLeYEsccaDj9BN4mSxu1ASxEkCIi9/REuSx68Yli1WRH2/XPYCOFQiIiIiIisleRZzGtYSAchOMWI+OWH00m7sMLGypCfMNCBMkv6RrGh2ixCPEtvqg5+RQ+sRJBRERERERWk4hr08rDXThmMS46z7yoOXg3Xtng2IaFCJJZMp4srw9vwYmijbgiuNMKXOE0EUREREREZCXRBzqieEbReMW46NyzodiQgwiTtmdrWIggWSU9XIuepX2EJ4tW4lB8Ai5z4QwiIiIiIrKC2Etz0dCSpTodM6HyxNM2MzGlCAsRJKOP2NcnH1xEJ4uWkqkrTn3ksxlERERERKSysF3okkMwRjEyOv+qGLjuqs0/as5CBMkm5tJM1PIRnzCaikMVrL6fIPWaiIiIiIhIBVEnMbxyDrN/uNXnbIQZJ17BHkYyLESQPCIOo38RZ+EJo73kwehTfDaDiIiIiIhUkvQSe/sWgF44Pkk7znkaYsK+l7CxxTFSxEIEySARp7plFp4waUXnkQfVe5aCp+D/Uy4eaLH+udR3IiIiIiIiJUXj/JQq8HUWjU3SjkuuGhi0/4O0LfvAQgRZ7tNudM4uPmlSjh6ZS7bCsMV7cOXlLvQvqubdFC5osCIUnCWCiIiIiIiU9uL3dijt5ygYl6Qdz7JDseV+rLQl+8FCBFkoGidG10KAXnzipBinEPTb/QhvI+NhwHvs6JZb/O8UCQsRRERERESkNAPeHJ2GxrnNK0J4lB2LM1+kTdkZFiLIIslXJyDE1CJEBgcUGXMR8dI2gFj8MTLE7OelzEmRcZeRKLVOREREREQkt4SHa9E+t4NwPJJqHDMjpNViXLbTIsQ3LESQBV5hdT1P8cmTYvTwq9gXB6OlTfzFgLuzy8FR+O+ViW/Hg/ihC0RERERERHKJOY8JFb2EY5HUonf2RLY2v+G5nd++zUIEme3Vuq4o5iE+gVJOADpsfitt4V/hm+rAWfjvlYm+wq+wr+leiIiIiIhIE6JPYVSljMJxSGpx9s2HZjOP4U06eIachQgyj+E6RuQy4zajnANxXvBMRMLBxqoWIjLkn4kXUttERERERETyeIct7bKKxyCpRO9VCkP2vUWStBV7x0IEmeXFmkbwEZxAqSZjdUy7FCdt4Ufxe+vCQfQ3SoWFCCIiIiIiktVLbOoUBB8nwfgjlfiU6oBZ+58gQdpKesBCBJks6cFqdAtxFZ5EKScbmq+4l+IEkcl/9oW/8O8USp4xuC21TUREREREZJloXJrTHHmdBWOPVOJffTR2P4yStpF+sBBBJgrD9nYBcBWcRKnFo+QonEltdsiwneiYWfy3iiSgGw7a8Sy0RERERESkliS8PjwO1Xz14rGHMM7IWWsoNj5MT/dB/IuFCDJJwo25qOElOpFSji5bXUw+/lHaQgqijmNwHvHfK5KAjtj2XmqbiIiIiIjITB8PDERIRkfxuEMYZ+RvPR/nP0sbSIdYiCDjxV3GnGa5TZ7LIaDXCcRKm0iR2oWIwA7Y+FJqm4iIiIiIyAyJtxageREf6ERjDmGcUbj7dryT/j69YiGCjJSACyODoReeTKnEuzHWG3OWJd7GoipmrMJhbrK1xvrnUttEREREREQmSniyG6Or+5tQhHBCcN+9+CD9fXrGQgQZJ3QJqrmKTqZU4lEUXZY9gHHL4L7F/q6ZxNtRIr6NsfxhstQ2ERERERGRCcJOYUrtLOKxhiB6r9yoMfEYPhg3OLJ7LESQET7j8LjqyCw4oVKODrnbr8UjoxfCjcaN6YUE21Eo7mUx/BAniSAiIiIiIlO9wup6AUbfLa53zohac28gXvprYiGCjPFoHir4iE+qFONYFhPOxUgbMEYCnq2vB3fRtpSIS2F0+vU60t9COUREREREZL4P2N63ONxEYwxhMqL+ilAY/ftsOsFCBKXhKVY1zCg4oVKLHgX67jFxApZEPNs1ECXdRNtTIG6F0PaXM3jPW6OIiIiIiMgoH3B4VDl4iMYXojgEof3qu9DCAp1Rd85i79rFWLxoERZ9l8WLV2LnqRsIk/6dWliIoFQk4M7KTijkLDipUok+ZDhOm3IzhCTy6lK0zWvKsjeWxA2lhx/Aa5YmiYiIiIgoTUm4OauykXdw6+BduDFGbnuikTshwrCnR2E4CfuaAZ6VJ+KkypUIFiIoZa/WoKGfs/DNmmL0Pqi3NVLagIk+H8XwEia2Z0E8mmzDa85XSUREREREqUrE3RVtUTSjTjiu+DGOyFqhB5ZeipD+VgMMVzEkUNTX/8Wx5EScYSGCtCERN2ZXNuHZp29xQK7mv+B6orQJU8VfxezqnoLtKpSAATj+SWqbiIiIiIjoJwa83jcYxV0E44mf4gz/Ys2w+Eac9LcaEb0VNR1E/f0Wb1QYtgfPzB3DmYmFCBIyPNuCHoVMfUwiP0ZetuAWA8MjrGruL9iuUgnG+Eucu5aIiIiIiMSSn/2Gttm94CgcT3wfR3hmb4aVj7R3y3XCnxNQMsVChB+a/vpI9RU9WIignyXfwMQips/V4NVki2WTnCQ/wPKGmYTbVibBGGfSyh5ERERERJReJN79Fa2LZ4WLcCzxfXRwD+6JjY81difEXwx4u6c/QlIsRGRFx92fpX+rHhYi6CcRWxqa+EhGBrjka4YZNy2t/j3HmsY+wu0rk2CMPfNFapuIiIiIiOh/DE/WoVfl7ClO8Phv3BHcdCw23oqW/lJrPuLM7KbIpRf1/VtyYPgt6Z+qiIUI+lHkCUyukVnwBk0tjig99SYsvwnJgEv9swq2r1SCMZZ3RBARERER0ffiQ7GmVQB0wjHE9/FB2b7rcS1MwzPgx1/H/Hq+gr7/neJY9E76typiIYK+k4wbE0KMXxf37zjXwNr30iYsFDo+p7gNReKDtjvUXjGXiIiIiIg0y/AcW3qGwFM4fvguukwo3XUJrsdKf6dV7zegiZug/38nYzvstsICHyxE0L+er0Add8GbM7U45EPXLa+kDVju4fg84nYUil//y1LLRERERESUvsViX8uiyJTiYwxSdN4IbrocDzR8I8Q/LndLvahSYBwuWmH+fhYiSPIGuweXNHFuCCeEDNyHD9IW5HBvVKCgHeXi0f6kDI+UEBERERGRbUvE4/UdkFsnHjf8GzcU6vI7Qm1kEPF5c6NU7nj3QOmBO/DCIP1jFbEQQX8xXB+GoplNWynDya8BlshcBrw90NT5KSyLb4+zLEQQEREREaVryXixpQcKpLiyxN9xR4m+m/BI649j/CMeV6ZVgKtwX77GrQi6rryGKOlfq4mFCPoqDFtbmbhsplMeNJlxFnI/TvRxXS04i9pTKBk7HkWC1DYREREREaU/YXu6IW9aj2Po86DZ7NN4myj9kS2IuYWV7fPCQbQ/3+JZEeNPhUv/WF0sRKR7ibi/sg0C07wF6cfo8vbHEQVKZ0m356NqmpVI+eLRbCe4gCcRERERUfr05eJsNAzQCccK/8QhHzquvmdzP2Am31+CFnkcxPv0Ld71sfK59I9VxkJEevdqCzoHCN6UqcYP7XcrUzlLvDlX1UKEa40leCK1TURERERE6Uf8nXmomtqKEt/ikAetFj+EFaZRsNiXXc1SXxExc3vss8ZzGV+xEJGuxeD8pAomTlDpjuB2i/FI2oLcVC9EVJiMS1aYJZaIiIiIiKzo+XLU8nSCTjBG+Cf6nGi15qlNFiG+zQ9xorufeL/+TsYeuCT9a7WxEJGOxV5fjvb5TJugMoNTWUy7rtyDUcl3f1H30YyqM3CVhQgiIiIiovTj82lMa5wHToLxwT/R5UL735/ZaBHiq7ATGFnSWbxvUvSVluG19M/VxkJEemW4j/nVfIVvyNTiVmcd3kubUMTbHejsI25bibhVnIQLNjPrLRERERERWSTqGlZ2Lw5PwdjgnzjkR9cNobCleSn/6+mq5sgq2rfvEjjkuFVWzPiGhYh06tXKWiY+kpEBDnnaYO0zaQNKSXqOLXVTr9zJGYfggTj0WWqbiIiIiNIRA5IS4hATFYmIiAhEhIcj/Fu+/e+ISERFxyEh0b4Wek+Oj0JU5Lf9lfb1u32OjIxCrL2va294h5098qa8nGUGHRxdiqD3psc2XYRA0g1ML5/Wne96lJlzFXHSn6iNhYj0KPwkxpRzE7wZU4lDQfTe+Ub5W5MMYTjZyUfcBwWiy9Uav97lsxlERERE6YMBMe/u4syBzVg5dwJGjxyGIQN7omWt0iiYIwdyfEu+EqjWtCsGDB6GEaPHYvrC1diy7wxuPg9DTJK0GZuQjNiwp7h27iQO7d6KdUtnY8LQXmhTtwJCckv7+nfyl0TVxp0wcPxcrNp2GMdOnsH5P+/idWSC7T6a8JM4XJnVEAU8xOOCb3Er1Q8bH2h/bGAwJCEp6fvEI+LNfdy4cgF/bJiKbjWC4JHGqoi6gPqYdvKDtEX1sRCRDt2eWAU5XMRvyJTiVHoqbqlRITV8ULcQkaUKRux8DJYiiIiIiOyX4eWf2DqzB2qG5EBG5x+XatSlMGAT/nedB/JU7YaZm87gwUcNfoNMCsfDE+swtVcDlAjMAi9XxxT3L63odHo4ufsga75KaD1sAXZcfgXbfaI5Ehd+6Yhi3uJ9/Sd6Z3j5F0CFJp3RtVsP9OjWBR07dtRG2rdDm1ZN0bBObdSuUxd160qpUws1q1dG2RIhKBCUEwF6wX4J4lhkAPa+td59HyxEpDdhW9HKV/xmTCl6v4rou1vRmSH+ZfiIP0YVh6OgH8okExouv2/DH6pERES2z5CchMTEBCQkxCM+ntFuEpFkcz+PJ+H1iXloH+Ip+B5ofpx9A1GobG10mb0Xd8Otf1CSwh/i5Nrx6Nm0EgpndxX22bLo4Ju7GKq36I1Z++4j0qbeBwa8PzQCZdxF+5V+41R6vFXnymMhIj0xvMLW7nmhF7wRU44e+XrvxUdpE8oLx6VlnRGS1nq+MqbgtLuIkVonIiIihRgS8OXDM9w+9wfOnDqB4/u3YPXCaRjdvwta1KuMSpUqMZpPNdRt2hZdBy3FkQfh0Pp0Akkv9mF0tWxwEXz/kzN67yDUHbIG59+o/9xG7JNjWNizEnJ46IV9UyYO8CvbBb8cf24TdxUn31+OxllF+5G+41RlGV5Jx8gaWIhIR95u7YySviZ+SGVuh10R0gZU8vnkRFRN67YpGZN9yEWES20TERGRXAyIe3cbh1eORf9ubdGkTlVULFMCRQr5w83IW4cZjcbVC74BQQhuMQvHX2uxHBGOP2bUQyF/NxN/gLMgelf4ZC+PXivO44Pih8SA6JdnsXZEYxT294KzVc4nHZy9siJ/mT7YEqrdiTMM9xegYbYfH8Vh/hfXVietWkxkISK9SL6J6WWdhG/CFOMShAZTbqs+QY3h8So09xf0R6F4tNyFl/YzCw8REZGVxeP52R1YPLozauZyEV57GfuJPkdjLH6gpS9SH3B0bBVkFPRVnTgisMEsnFPohzxD2GVsmtASxTM7CNq2ThzzdcSauwlSDzXk8zEMLqzmnSK2lULjb1p1IlIWItKFZDzb1B0FHMRvwpTiUno8zn+RNqGmtzvRI0jFymW+MTgVKbVNRERE5kn4gFsHF2Fgg2D4ujiq90s0Y/W4VFmEUOltYF1vsK1LLugEfVQ3zshVdzS23ZazGhGJm78PQmV/J22eWx5VMfOqhooRkccwNMQTTmZO1Gn/cUb91S+kg2UdLESkA4aHi1DPT/QGTC2eaLjurbQFlYXtR78CKlYvfTtj+zupbSIiIjKRAR/OrcDI1uWQM5Vl8Rg7jlNJjP4jWno/WMs77BtRBZlF/bNSfIq3x+yDoYiTemi2uEfYOaoW/AVtaCkuBdtjyW0NzBoRew5jyuWAq6CPjBTXshh/WuXn7/+DhQi79wYrq5n4SEYGPQKbLMMTaQuq+7gHPfKoeEcECxFERERmiXlyEou7l0MWzvmQvqPzRdleK/HAag+cx+DUkPwauBPi5+g9A1F3wR2Yu0hi+KVl6FYlF9wF29ZkvBtglTV/aE9+hUPDSio+Qamtx7/6SOx8Yr2lO79hIcLOxV6ZhkomrkDhWKAT1t6zYjUz+gQG5lWxEOFSB8utVnUhIiKyQZHXsW5KD9Qrmg0Oomsrk+7iUrQf9n+S3h+qMuDF7qEo5yXulxaiy94UC6+aesdILB4fmIl2xTJqssCSchyRt/0KWOfGiChcmlMXWZxE/WK+T65WS3HdyjcxsRBh1x5hbtMCJlZQXVFu8kXLbyGzRPINjC+s5uy2hTD2qtYXoCIiItKG5Ge/oV1O0fWUSdfxbov1z9Sf+s7weDnqZzTxkV6dGwKK1kaXccuxfvMO7Dt8DMeOfc3RTVg4tieaFfORefCvQ6biHbDhuZHHJyEUu8bUQjZn0bZMj87FF0FlGqDr0OlYsVXa1/9mywKM6lwXRTI7CrdhUvSeqDj3geoTIT5bVAnZVV3G1HZTYMBRWHuKPBYi7NinHW3gK3jjpZpcvbDDSlND/OslfimhZiHCC20OWrX0QkREZBM+nZ6J+rk9bOwXWkaVeLbG2qcqDz2TQrG5dzGT5gJwK9wUYzdewbuoVG5LT3qFw1MaIrusEx06olDPzUizVhNxCmPL5oS3o2gbRkbniawFyqNRtylYd+IePn6JR5KRL43hy0tc3rkAo7o2QJm8buLtGxGn4qOh5rQhCbdXoWuI+f1NX9GhxFT1V0b8LxYi7FXMGQwPMbEi6FAAPba+tPqb8usnMNZWULMQoUPFtdadrIWIiEjbInB1ZWcU5C3PTErJ2Bbrjf3FXyYvl9VDbhPuGnAt1hub7hq7JFwsbi5uLO8EkfpcaLnoNpKkFn4SdwPzanqL/9bYuOZCjX6LcejeZ1h2v28Swm7vwazO5RHgYs738mxovuyu2XNjmMaAh4vqwkfYD+bn6FB22Qfp2FkPCxF2KRJnJjdGkIm3c/m22f31a4YWhGN9FTXXRmYhgoiIKEXhl7BucA0EsgjBpBLXYv1wQM05Ij5sQVsTVoVzDhmAg2HS3xrtBVY18BJuz+w4lccC0dxkUacwtrSHmUtzOkiPmqzAyeex0gZlEh+KPROao7CnqN00kq0bjsjcHbE4/DE0j7gPjCDuaH7Q+qubsBBhh5LvLkY9H9PuhnDMVhljr1v/Xoj/icTmOs7CfioTHcqtMPnKREREZP8SbmFJ8xxwFF4/GUaKzheluy3F3RR/6pdZ8nNs710YTqK+COKYrz2WXzdv4BVzvDcqZZNh3oTvknf45R/vVoi+jPlNAsx75EmfGeV6LMXpx5EW3gGRkkhcWzMQ1QLMOQa+6H5BjfFFODbVcxG0zwjjWB1LH1t/3MdChL0xvMauPoVN/MLghopTLkGVgqVRYnGglczV51SjQ7EZj6S2iYiI6C+fzmBe+yLwFF47Gea7OAWjz45XCg2Ef/Z6U2sU8DLycQFdVjT79aH5fftyEQta5JZ1dRjXEkNx4MXf37zfYFUt8wbROv8aGLv/RcqPepgtHmGPz2H7gsFoUjwrXMyeK+Prd+xZodI2lfQeK8pzkkqj494cG6y5xKqEhQg78+nwYIQ4CN5wqSVzW+zW1JMJybg0PJ+4r4pEh0IjLqr0DBsREZENiL+LVe3z8k4Ixqjo8vbGPrUey0i+hZkVjR24u6FQ6wW4ZtGvbXG4NqeWzPMPZEGdkfPw++HLeLSyuVnzUDi4l8OoY3Lf0ZuIsDuHsHRIY+R3F7drarJ22AHlZyN4h2Xl1JxfzraTpcECXDF2qhQFsRBhTxKuYmYVV+EbLsU45kaT1S+lDWjHy3XN4SHqr0IJ6nUA4VLbRERE6Vr4aUxuWlDV6zBjy3FHsZGnoda45t3e/gg2dr4SzzpY8cTyW9A/7++FINH2LYhDloxwd3Yw43EMJ+RrtQDnP0udk0nM46NY3Kca8mV2kXVVnEw1p+K04l+yWYgwPr6oPuEY3qh1+1IqWIiwG8l4srkHCpm41I9f02W4r8FbAd5s6YxMgv4qlTzdd+Oj1DYREVG6FXcHa7sGw0VwrWSYn+OOwm3m4ozMg+IUfTmNUcWMn9A8R68TkGWB9heLUNGS5TTlilMAKvVcgauRUr9kEn5uFuoHKjNRvHe5wdj6WOmJET/gl0IsRBgXH9RdeAfWn6qShQj78WIVupQwdV4FR9TYqM3VIl5t6sRCBBERkZqiz2NSjZwsQjBGR5+7Ezar+Kz5u/WN4SXohyjuBRrjV7n6lnwSbdzE7agXPQLb/4Znss4x+B7HpzVFXhdRe/LEs0QPrLomc+XkJ7FYXdgdvoHBKFq0KJNSQnLD3zsHuu5Rc3mblLEQYRc+Y3sbX+HJn1rcK87FPa0slPEf77ape0eEX/35Fj4/SEREZMOibmBV96JwF1wjGeanOPqhZJtJ2HJflvsNjPQMq5tkFvfnp2RCrZnnESX9pcWST6C1NQsRDtlQfegG3JXzu6rhPU7OaIycekF7ssYXjVffRYLULNHfWIiwAwkXR6OwibPZOhfpj12vNVqF+Cr8YD9kE/RbqXiVGYhtofyIJDPEvcT1yxdw9tQxHNq3G9s3b8KmTQxj29m8bRf2HTyKk39cwKVroao9+01WknAT8+tk58SUjFFxzFwMTUdvw91o6f2jki8XZ6OOr7hPP8W1BlbIOQVawiG0cBW0o0qc4d90Ge7JujSGAffm1EWA4kWI/8Wv7z5woXz6LxYibF3Cn5hYL9DEJYX80ezXR6otsWQOw6s9aOUp6rsy8S7VG2tvyFY3p3QhFnf2/oJ+9QojIEcu5MlXAJmdxe8vhrHFOPrkRb6gXAgMyItq3Wdg22VtPspHlorChVn1kEXwHmCY/0UHV78CKFOnDfqNX48rn6zxQ9Yb/Na+BDIZ+cNb5k4HIGud5PPvqKvg4wupJUuDX3BF5q+oidemo5KKd3h4tvkd2psan6yNhQgbF7m1kYnre7sid41xOKP0o1qWirmPqYVE/Vcm+hxNMPd8GLR7jwhpzft9g1BUxWIZw1g7Lrk64LdQLZewyRwftndGAUUm4dNB7+QGLx9f+GXLgcDAwL+SOyg/CgUXRYnS5VCxUiVUMiulUCC7D9xMXa78WxzckCWoBEqVKYfyFUXbtjwVy5VGiWIhyOHtJO5DqnFFttz5EVKivHDbyqYiKpQri9Klq6J+q64YMGoK5i5di8079uHwybO4/z7Get+T3q1EdQ/R8fo5ToE1Mfy8zFPxhc5HRWNX6pAzDqUx467MRz38NKbWNP2Rbkvi02Ur3kjNE/2NhQhbFnceY4qaOMOtRyVMPmsDv2pF31O1EJEhQy4MOM1CBBkn7tYadA02calchrH56BBQdyqO8/5auxF9fhIquotea8vi5F8KrYdOweLf9+L0nzfx4NkbvHv37ms+IDIuSaZrbRKiHq9Dh9zGz5TvkL8rVv2p4rU++Sm29s8v7Is4bmh9isU+kVcrqhs5iaoD8nffjKcyH8Zvj0EXUekxhr+j86+BMYfk/sBNwOVJpeCvalFFj3LLb2tilQbSFhYibFYETk2piwAT54bwa78Lii/lK4foe1hQVc2BniNqrH/MiXTICB+wtU1OWdfYZhjbiQtKTLyp6Uf7yDiJt+ajdibRa2xG9M7wzJIHFVqPxLL9F3DvVTji1HiTJFzG5DLO4j79FD80XXFf9et86KIKJjw+WwtH+IvIz5IfYnnDTILjJUp+DD0v/6v8Zmsn5BS2p1T80Wq9AsuRxJ3F8MJqL3MZiB6H3/LHPvoJCxE2Kvn2TJT3Me1uCIeA6ljyTNqA1kXfw8b+ZeAt2A+lkrXvQS7hSWmL3ovW3uL3EMOkiwRNwiPpdCAb9eUI+gQJXlszovMtg45Tt+DyG/V/7ww7NhE1s4j79VOcymLaDVln+zNCBLY0dhP3RxBd6Xl4Iv0l/SvixCTUzWbk4DnHCNyS/k4+4fhjanUVV3NzReEOW/FBal1O0WfHopTK81k55GmFhZds4mdQUhkLETbpI/b1Kwi94GRPOVnRbLkNLZ2T/AEnZzZCDhVvg3NvuhZPWK6ltHzZieZGPqfKMHaZkHmcdMyWJYViYz/LC/2OXjlRsvMCnHiVKG1YbR+xo2OgsG/C5B6Mi2rXIZL/xMBAQV9SSJZue/FZ+lP621MsqOguPF6iBHQ9BtlXY4+6jGUdChn5aIil0SFbo7m4qMj86eE4N7sBspl4N7WlyVh5HI5+5Bds+hkLETbo3Y7BKO8jPtlTjFtT7Leph7MScG9VW+RS8cPSseo83OCzGZSW+GPo5id+DzGM/ccZWZrtk/+LPqnEgAcLasLDwmurY5ZqGL3nGdQe1/8g/gg6mvBdyKXxHsRJf6qaF4tQzoQJNYtMv6x+H7Xu4RgECo6VKDq/qhixX/5JbJLu/4re5bOY+AOgeXHMUg5TrylU3Is4jaktCsJd0K6S8W28EqGsQ5AACxG25v1GNDP5mc7MaLBagefMFBZ2cCCCFZnJWxzHqvNxy1o/7JANicaZ4YU4RwSTLuOYrx2W3bHq8JMsEH1xIVoFOQpfW6PiFYLm4zfj2gfrvweSLg40eoCaIYM7ys55IP2leuLODkMBY4s+DsEYfFiJm/Ft26etzZFRdLwEydxgEe4o8KNb2J5uyC1oT/bocqD5kuvyLjv6HcOTdWiZVdCuwgkccA78ek0iLETYlDicGhQkPMlTjhvKjDoGW5zkPO7SZJRTc83m4pNwiXdEkDHe7UW/whZ8mWcYm4wzKsy6w4kqbZXhKkYV8hC8rsZFn7Uahm6+o9ggyTQG3JpcxOiCsFv+JphwTu2eGxC6pgX8Bf0RxbfKKOx9wSLfjz7iwJCicBIcr5/jjMoLlZhhw4Abk4oI2lMgeYfhgoIj9vjLU1FK5ccyvj1qUmbZe6kHRD9iIcKGGB6uQZdgF8FJnkq86mFZqLQBGxN/ZQYqq/ksvq40Fr6WGidKy7diRFlf3hnBpIPo4JmvFvouusZHMmxWEm7NrQYP4eubRtwCUbHTDBx/q6F7q6MvYWYtH3F/f4oj8rSYj7Nqz5WXGIot/YrDTdin/0aPPB3W4RF/Nv6B4cnv6FvGW3C8BNGXwfyn0h/K6j1WVlXhhwddDnTao+zy+nEXp6hfiHArg7mcgZVSwEKEzYjBsZ554Sw6yVOKPiMKdduLT9IWbE381ZmoouqkgP4YfFtqnMgYX57h3IbJ6N21PVo0qoM6dRjGvtKwRXt06zsZu+9/kd70ZItebOyEvGZM/uyUpQhazjyKVxr7of79rj4INnrm/4yoOvkPREp/qxbD47XokM/Y1c0cUWzEafAs+9HDeVWQWXi8fo6uwBhcV+J2reSL6J9d3KZ88UGFwdvwQuFaX+wFtQsRnijafjkec34ISgELETYi9uwoFDFhwqNvcSs1BPvfSBuwQXGXpqC8q3jflElujLknNU5ERGQPXixFFXOW68tYEaMOvtHgozhR2NPOV9xnYbKj3Sb1b3cM29oaPsL+iOKE8jP52NOPHmFKQdGxEsUDpQYcgiL3E4RtQXNTJ4g3Mfq83bBVhaWIVC9EOBfH8CO2+HA4qYWFCFvw6Rgm1fI38RbwQHTfZ+Nr9r5eiVpuon1TKkEYz8XxiYjIXhjCsL9vfhNn+3eEX6l2mHL4lTYHxsmXMDCHqN8ppRDGq363YwJO9fAX9CWluKDeBi7c+YPwrWjkLjpWP0eXtS6mn1Lm+MVenIzyin4XdUX12VehxsJ2iTfno4aKdxp7N1iDV1LbRCIsRGheAv4cEwIvk26pdEFQ499h83MvG86io5do/5RKToznc2xERGQXEnF7QT3kNXIw9784wL/qFPwRJW1Ci57NR0mTftUti99Vn9zkISYEifqSUjzQ6RzvX/9ewuUpKOMkOlY/x6X8ZFxWZCQfhctLWiNIwRXcPCuNwwm1fjd8vh6dSvqoMreV3r8SZtyV2iVKAQsRWvd2G7rmEp/kKUWXoyVW3LOD5R8MF9Fd4dvhfow/epzishlERGQH3uxAj7x6wbUu5WQsNwQ7nmh7xsSwbW2Nnjfgr2QfgVvS36rmyz60M2mp9SBMfCj9LX0VhUtzGyKr8Fj9NzqETLoFRco48TexsI6Rk2WaFQ9Un6/iIznJT7F1cDmjl0M1O0750eHXm4iTmiVKCQsRmvYG2weVhqfoJE8lXq32Ikbagk1LPosemcX7qEwyou6SB3xGk4iIbFwYjo4ub9oqGY550PuAxh/pNLzF7r7BcBT1P4UEDjyp+neixOuzUdWUO1Hc6uM3rnD4r08HMKpWdjiIjtVP8UP/qwrdTfJqE5or+ihDLgxVqu8p+LS/N4IUnSdCB5eKM3CTK9GSEViI0LCPmxqZvtSWb0OsVmHCG1Ukn0UXVe+IyIxGKx6xEEFERDbt1cpaJn1/cMhRG2N2hkLrq0cm3piNlgXdhPsgjC4v+uxVe4SfhBdbeqGQKbfz5+iL49HSnxNij3VDDtFxEsWvETYo9Cxy/Ile8Be1KVNcysyG+nOkf8DmVqZM9mpaXIt0x9r7vLuYjMNChGbdw6TC4pM8xbiXxuDd6s8MrRjDJfTOIthPxZIFjZfzjggiIrJhyRcxIEB0jUshLv5osvze1+Gz1hlwe3whk+4SzVh5LI6+V3nuBcNL7B1cCm6C/qQUh0q/4C6/fPzj/tjcwuP0U3Q+KNFpMe4pdOxezSsubleG6HzLoY8VVnP5xvBoMToX8xT2y7LkRLe9nHSVjMdChCYZ8OT3Hgh2EZ3kKSdL83V4Lm3BPrzEsmqOwn1VJh6oPP0yn2kjIiIbZcCbvf1RxMhJ/jJk8EbZwTvwwibmSXyCOcV1gn1IKToEdd+Nj9Jfq+bDbnTPJupPyskx5CQ4fPvbB6yr5Sw8Tj/FJRhd19xRaMWJaOw3aZlY0+JVcSyOWnFW+fjby9E6p4OwbybHIQtKtZuGnfdUnxWWbBwLEVoUvgttAkz7cHDwLYJBx79IG7AX4djXM5twf5WJM4oO3Id3NvGFjIiI6D+Sb2J6o3xG/xqvyz8AhyOlv9W6D7+hgYkrgFRYqP7PMwmn+yC7sD8pxQ11Vj0Eb2aXxJzEoHyi4ySIX3OsfKzQ7RDJtzC9rJO4XYujQ4FBJ2Dtp3G+3Pgdw+vkgYuwj8ZEB/ecFdBh0h6EqrH+KNkdFiI0Jx5nhxYwcWkdT5QbfgDvpC3YjyicGJ5fsL9KxQG5m83D2TBWIoiIyAY9nYsSPkYOnlyLYtAJ25mY4OOenshr0iR7LmhzRv3r+bMpeQR9SSXeFTH64Gs+FiqJu7kEzbMbd+eLruhU3JH+TnbvdqGniavOGB9n1P5dK/fAfMSJ6R1Q2t/EO5Ddg1BrwDKcfGoX0+OTlbAQoTHxNxajRaAptx5+TZ4+OKLlNb/NFoXTY4LF+6xQ9AV6YftzrU/XRUREJJBwEWMalkB29zS+R3gUR881t2xnha2ke1jVNcSkeRcyZAjBL2+lv1dNEk518BL0JeW4BnfBqpv2dkeruZLw6uAYVDNyxbRMXU4qdCeJAe+PjkcVxSZMz4+J6s9SmarEiOe4dnQjfhnVFa3atEX7Dp3QqdO3dET7tq3RsmVrtPv637oMm4GVO0/h1qsoG5hXhrSOhQhNicTW+rnhYUrF3ykbqq+x1zWf1C9EZHCqgTXPeIMkERHZpoRXZ/DrgBoIyiR+zt4xW3l0W3kTtvQ0d/L1sSiXzch5A/6KA/zKT8B11W8zeI3VtV0F/Uk57mWH46DaE2pqVjzub+qHMl7iY/VD9N6o8ZtSy82+x74xtZHdQdCuHMneD3/wqyYRCxFaknx7GkqZ9KGnQ7aGs3HRbu+KisfV2eWgF+67UimOeZxsh4iIbJoBcRHv8PT2BZw/f17KOZy7+Bgf42xv0PtgehHTvgu4FUK7BVfUL7ZEHsewIqbN8eVTZx6u8/n6fxhe78KAomkVnfTwK9cdm5R6JjnmFAYVkmkiR0ECO+2AFeepJNIMFiK0IvwkxlU0dSmdTGizO0LagD0yIHRNfQsm0TEnuTHqoj0fUyIiIlvyGksqmjYo1OfthN9C1X/MMvz8bDTIKu5TSsnWdgNeSX9P30Tg+LAiyOTtATdnJzg5fRdH6ZEjx/zouPK2cqucPZmNYv95neSKzq8qRu548fUbLhGxEKEJ8bgyq6rJA26/5hvwRtqCvYq6NAkFBPuuXBxRY/ldPvdGRESkBWG70Cm76HqdclyrzsVd1R/LiMHVFV1QzEPcp5SSvfNOhElboO8kJyIuOgIREf9JZCQiFf6SFrGpPlwFr5UccSk9CieUeqKEyMawEKEFLzejc27xB1ZK8S4/HHvsvQrxVdKrLajnLD4GSiXP0OOwy7k/iYiIbEoSHm/sgcImfg/I2vMEVH/awRCK1V2KwF3Qn9SSq98Jm5qvw/4l4eKgXMLXSo5kbr8HtrJiLpHSWIiwNsML7BpWET6CD6uUkwOdt9nrBJU/SmQhgoiIKH2KO4V+5bPBSXCtTjmOqP7bJ2kDKvpyBH3yiPqTegpOfSRtgLThGdY2zSx8reRInqnPpXaIiIUIK4vY0wm5TZ2VN3gUziv2YJy2JL1WvxDh1203rPAVhoiIiL6TfK4P/E1ZSeyvBGHUTSs8gR86GyVM7msGFF2o+hqjlArD+wMYXsZd+FpZHkfU38/lMoj+xkKENSWex9Ag0QdVanFC7Y0vpA3YP8M79QsRTtWXgvVqIiIiazLg+si8wut0avEo2g17P0ubUFHSsRZmTK6tQ6nF6eA5Wxvy6fQsNM2l0IoZjtWxgjOTEv2DhQirScCdZc0QIPqgSiNutUdgw9VPf824m5wYj5iYGLtKbHwikr/uXOyTo/ileyHoBMdA0eQZgRuczpiIiMh6km5hViVX8XU6pej8UXXYNrywwjX87dIyZnxfcUCVNR+lLZD1RePchPImz/NhbFyq/YLbnA2d6B8sRFjLhxWomC2tdZJTj07vAEdnF7i5udlXXJzg6KAX7rMqcWuJo+qv+kVERESSj4cnomYWwTU6tbiWxKA9r6H6ghlfB7DHBph+90aGDG5ovIOzUmnHQ8wtKy0RKnccgtB2xU1OTEr0HRYirCIZV8Za4Zd+xri4NsNhFiKIiIis5D3WN/ARX6NTi19LrH8pbUJNSfexokU2cZ9STUGM/JNfODQjbC1qOIleJxmSuSEW3eH8EETfYyHCCmKuzkEtH8GHFKONuDTBAV4riIiIrCNmJ+o6Cq7PaaXweKs8Wpn0cj9GVc4k7lNq8WiOtZyUSjOSTnVCRtHrJEfyD8NZ1deUJdI2FiLUlngDs+oGwVX0IcVoI87V8CvnjiIiIrKKL/s7IrPo+pxGMrY/CmuM9cIvLkXHEDdhn1KNR3OsfsJJqbTixa+14CZ6nWSIvvLviJTaIaL/YSFCZZ93d0F2M5Z3YlSMU1lMu8HZhIiIiFRneI0tnXKJr8+pxgEVl1ljKcxEPFzfE0XdRH1KIx7NsSqUhQht+IRDg0PgKHqdZIhXz+tSO0T0NxYi1PT5FCZVM+OZR0bduJbD5Etx0otGREREaom9NA8tg5zE1+fUkqU25t5Wf5pKIAz7+5hTOPkaFiK048MxTKrtJ36dLI4nmu3k/RBE/8VChGo+Y0/XfIpVWhkZ41IG489FS68bERERqSMKBzrngoPo2pxq3FCky0rctMZvCMlXMbqAqE9GhIUIzfh0aAhKugpeIzni1QTrOBcI0U9YiFBJzJGeCBB9ODHai1NxjDrDQgQREZGqYnaggbPgupxWdDnR5td7VpkfAmHLUULUJ2PCQoRGJOLCyPzi18jiOCBf59/wiE/8Ev2EhQg1JIViXZscgg8nRpPRB6HrlhfgVwMiIiL1JPzRFzlE1+W04lQKky5baRnMB+ORW9QnY8JChEY8xsxigtdHjujyoPOGZ2AdguhnLESoIOZob1T0dxB/QDEaTBbUmnIcH/ndgIiISCURODmmtHmrirnWx+bP0mZUlnh2IHKK+mRMWIjQhogNqO4geH3kiHNFzLnL15hIhIUIpSVdw+SSjuIPJ0ab0WVBtVG78ITrPRMREanC8HAx2hf1FF+X00rRGQiVtqO2zzvbw0/UJ2PCQoQmGG5MRIhSK9p5dcAp3g5BJMRChKJicHlmNXiJPpgYDccbpfusw60o6WUkIiIiRd2fUhieZg4Gs/Y+A+s8mGHAwyV14S3ok1FhIUITXm3sYN4jQcYkcBqssagskS1gIUJBsRcnokZOZ/EHU2rRu8EvZ07kZL4mG7yddeLjpGCcK8zErS/SC0lERETKMdzBlGJmXut1gWiz6Y20IZUlPcP2fsXNe5zkW1iIsL7kl9gztCw8Ra+PDPHv+QfnhyBKAQsRinmLDS0zCz+UUozeH5X6zcPWc4/xOSYaX6IiERERkW4TFR2DuPhovLq6D0sHm7lGt7nx6YQT76WXkoiIiBSTeGUKSjsJrsVGxKdcf/z+2DpDveRX+zGyvLewX0aFhQjre7kFvYu4il8fi+OP7ns+SQ0R0X+xEKGQT8fHoYKn6EMplQR2wbZ3rJv+LAkvdjeHu+iYKZacGHE8UmqfiIiIlPEeB0ZVQkbhtTitOCOk9xY8s9JXp4QHK1DTVdQvI8NChNVF7OuKrKLXRoY4FOyNXa/4+hKlhIUIJXzYgY559MIPpZSjQ7FJN5EsbYJ+FHNpLIKVmkhIGA+0+u2l1DoREREpwXBrGsqa+sPNP8mExmueS1tS36djAxAg7JeRYSHCypJxSbE7bl1QYvA+vOPLS5QiFiJkF4sjnUx8JONrvEsPxKlYaRP0k8grS9AmSM3VRzzQau1T8PpBRESklGSc7ZpJcA02Njkx9Lq1rtRJuDOvPPTCfhkZFiKs7DlmBwteF1nii+brXkntEJEICxEyS362Dm2yiT6QUkmWWphy4qO0BRJJfn8U46ta8mXF1Dij3pKHLEQQEREpxXATEwtbMCG1e1Psipa2pbovONo7QNwvY8NChHXFHUN3f8HrIkuCMPa21A4RCbEQIatw7OxUEr4mPkKQp8cufJC2QCkwPMHaVhZe8E2KHuVm3OajMkRERAqJuTwTNb1F12Dj4lhjJV5L21LfW6yt4yLsl9FhIcKqku8vRB0vwesiS0pjY5zUEBEJsRAho/hzw1DQ1HkMvOthyV3rrH5tWz5gT+8Clt0CaWK8Wu5FjNQ6ERERyekVfu9RGpnMnv/JA1Vm3YD1vkHdw9hcon6ZEMca+OUef/KwjgQ8/r0bCpm5WkuayTsO96WWiEiMhQi5xF3DzKoe4g+jFJMZdeZcgtXuKrQpkTgxogSchMdRoRRdxDtViIiIlPB6CSpkNHVi73/jWqgDlly24jcowxm0dxP3zfiEYOwVrpZmFUn3sbprMFyFr4vlyTvyLHhDBFHqWIiQRTxuLmqLEBNv73IsMgSHP0uboDRE4ujgEDgIjqNiYSGCiIhIEc+XVLboxwW/Bgtw3ZqTfH/ehIYWFyKcUXdLhLRBUtWrtWiSUfSayBCnohh27JPUEBGlhIUIObzbie5BTuIPoxSi8ymGVqsecQ4Co8Xg9LBgVR/NyBA8F5zvmIiISGaGh1hUy9S7SL+PDsGjL1nxsYxvu7AA1S0uRGRAyIK30hZJTdEH2yOT4PWQIz7VJ+E0f2gkShMLERb7gnOTq8JL8EGUWgLbrkMop4YwgQG3p5RUtxCRbwxucg4pIiIiWUWcnoY6Fq1W4IB6exKkrVlH0o2ZqOwq6ptpYSHCGgy4OlipCdB1COqzH6xDEKWNhQgLhe3qhnx60QdRKtGXwJQbvBfCVK+XVFT30Yxc/XCCs1WS0QwwGBjGziK9u4lkY3iAeZW8xdddo5Mbk55I27OSqJMjUdJZ1DfTUmi6lXckXQrDektXPEkxDqi43HpruRDZEhYiLBF/BO1NXnbKA8HdjnA1BjNEb6mlbiEie0dseyc1TiQQ/fAolgyoi2KF8yN3jqzImpVh7CtZfLzg7uKDCkO24bF1f4AmOxF/pAN8RNdcU5JzMM5Z9f2YjKcbu5j+Q5QgQcMv8TFdtcVfwNjiDsLXw/K4oM15qR0iShULEWYz4Pm6FvAXfgilHMfCPbH1OX9jMkfs9jpwFBxTxRLQDptY1KYUxPw5EzX8dOL3DsPYW/TeyF9zOs5HSScAkVnicX5EYehE7zETEtT3IKw7FWA4Ls5vhlwO4v6ZksCeh8DTSl2xN5egWXbx62FxdGWwlDOdExmFhQhzvV2NFsFe4g+hVBIw4AIr32ZiIYK0IubSLNRUarZthtFwXMuMxnE+/Ezm+ngcE6r6CN9bRidLTUw8+l7aoJXEPsCO0bWRw1HQPxOTre3vnBhbVbG4srQTQtzFr4el0ZWejTv8vZHIKCxEmCUaR3rlEH4ApZrsHbGbX+DMlnS2t8l3oFiUjNUx9Sx/p6D/+oTdnbKK3zMMY/fxQoO1rNCSeR7Pqwhn4fvK+DiWGI0/oqUNWkvMA/za0MKCihSf2nNwLU7aLikv+S7mVXMXvhaWxwVlJ1/8OkogImOwEGGGuKvTUMHUmZJ9q2PSSVYhLHJ/NsrI8Dym0XErhl6/3YM1lyknDYo7gs6ZBe8Xhkknca67GRHS6UBkvFeYW1j8njIlPm33WP9Rhuj7mB0i7p+pcSs9FPvf8id01bxfjzou4tfC0uhyNMOCy1+khogoLSxEmCrmEma1KAh3wQdQasnTa6+Vn2e0A282oqXJk4NaEI+i6LLsEpdgoh9FbkMThW7pZBibSL4pCJVOByJjGe5MQymLf0zQocySN9IWrUjGQoRj/nZYfp2DV7XEHWxj8pL7xsalzASc569XREZjIcIkBjxd2wpZTbyQOgdUwPQbidI2yGxh+9FbqcmFhMmCWpNP4h0n9aDvxZ9E7wDR+4Vh0kd0JReCD2eQad5g36BicBG8n0xLVvS9oIGLsoyFiAz63Gi/5h64KI06Hk0NFr8OMiRjq92IlNohorSxEGGKj4cxrKSr8MMn5WRDowVX+byYHD7sVbkQkQH+nQ/hPe+YpB9E4nDf4nAVvF8Yxv6TBbUXP5HOBSLjJN+ahoZ5Tf3+9HOc8rXCJi0sqy1nIeJrPButxhN+11BBBPZ3CxS+BnIk+7inUjtEZAwWIoz2AmubBQg/eFKLS4WZuMlf1OURfgzDgsTHWbEUnomrrCLRf70/hok1s4jfMwxjt3FFsV4b8IA/3ZJJEnF2YE7ohe8pE6LLgsrDtuKFFgbsMhciMuQejDOcsFJ5X85jajVv8WtgcZzQYHe81BARGYOFCCNFbalv8kzPukylMewCH8mQTdxlTC8uPtaKxaEqFt5jJYl+FndlNmoEWv4LH8PYRpzgX2oUTnCWSjJV2GY0k2O5Y9cyGHUiXNqolcldiPBoim0a2TV7Fn5mDprncRS/BpbGqTZWvZQaIiKjsBBhjMS7WFQ3o/iDJ8W4oOTQg/ggbYJkYHiNfR1NfR0sjK40pl3lz38kFnH/CJYOaYTyFSqhSrXqKJLdC46i9xHD2FocPJC1UGVUq1IJFcvXRp/5e3DzA+8dJ1Ml4O6vLZFd9B4zNVnaYluYtFlrk7sQkSE/xt+Rtk0KicX5saUtXj42pXjUWIQ7/O2RyCQsRBjh8dy6yGPyUj8FMPGutAGSSRweLyoNnfB4KxRdaUy+yCmQKTVx+PD2JZ4+vIu7d7/lDu7cYRgbz1/v5bt48OQF3rznjP5kpogD6FU+szzX7QIToZmvVbIXIlzReAefA1XWI8wprRMcexniXAhdVt/5+m2AiEzBQkRawraiVSbBh04aCeiy3/rrXNudODze0BG5dOJjrkzyY+gpfjkgIiIy1bNfysFBeG01PZk6H4dmnsCXvRDhgPLzOQmsosLWoLqj6NjLkEz1sOhOktQQERmLhYhUReH0qGIm32rtW2Uk9r6XNkEySsDT/RPRIJdCz/cJ44u2u/jgJhERkWnuY6psg3U31Fn/UdquBsheiNAhX/+j/AFLQclnuyOz8NjLkKBBOMeneIlMxkJEKsJPjkXd3M7iD52Uoi+MQcc4m5cyDPhwZjaa5HIQH3uFUnDqY6l9IiIiMkbYsTEo5y6+rpqc7K2wSkvrW8peiMgA31ozcYGVCMW8Wl0PnoLjLkvKrQa/+ROZjoWIlCTdxaL6PuIPnBTjhsBai/GA83kpJvHhenQuoOYdEV+/HPS7JrVOREREaTLc//odyl94TTU97ig1cAeeaWkBKwUKERk8KmHiHxzOKiMMh4YUVWyiSu8el6V2iMgULEQIGfBqWy8UNPFZMl2O5lh4jRMbKirmPCZWcBMef6XCQgQREZHxDPfnoqKT+JpqenKh06aXX7+ZaYgShYgMOoRMuKSdeTDsybvDmFjLX6HJzr3QahcLSETmYCFCIOnWXFQ3ec1rR5SbeUdbF0p7lHQL82p5CY6/cvHpegacgoiIiMgYibg2tZx8vz47lMaMOxr7dqVIIeJrgifiFr9Iyi7sQH+EKDVRpU8z/PZCaoiITMJCxE8eYWYx05f3ccjcGHtipE2Qcv56ZCaT8DVQKt4tdvLZPyIiIiMYXmxFr4IyzuXkXA/btbaCrFKFiAxFMIeDWpnF4+ywvIJjLUdcENJrE0L5axWRWViI+I/PJ0ahtIvowyaVOOZF22V3+Ku5GpJuY35tb/HroFA8663Ec6l5IiIiSkkCzg4pIOst8E4VluGNtHXNUKwQEYCeJ+KkRkgeb7G4rOk/MBoVXS503PAMWpq+hMiWsBDxveSrGFs5m8nLdeqCx+MGb6VTR/JdzK/hIXwdlIp7ldm4kSi1T0RERCm4gC5e4mupWfEsiMZLn0nb1pCY+5hTTNBfi5MRdRbe4w9bsrqMrnK+J7+PUznMvMsBAJG5WIj4RzLuzKsCN9EHTarxQcvtn6RtkPLicaSjqauZWBaX8tNxlYUIIiKiVMWd6IkAwXXU3HiX6YeNjzX4e3PsA6xplU3YZ8uiR87mC3GJy3jK58NqVJNt4tT/xL01jrJqRGQ2FiIk7w+NQWUfwYdMqnFB3qZTOEhV2e2hci0JZlwci43CKa09n0pERKQlCfewokWA8DpqXhxRuN9uvJM2rylJr3BoQi1k1Yn6bWEyVsDQ46xEyCXq2ADkV+J1+pbAKXgptUNEpmMh4ivD3VkoY85sug4F0WfPO66UobIbQ+X8opN29LlaYMHlSKl1IiIi+q8PmzqgRCY5n8X3QJ1fNfhYxl+SEPpbJwTpRf22PDmHXuF3S1lE4eKs2vAVHGM5krX3H0iQWiIi07EQkfAQyxqYuQpDYF+c5JxCqrs6UN07IjI4FkS3jY+5tjcREZHQKyyp4CK+hpqdAhir4Qm4Io8PR3GlbvkvNoeTZMsh4g9MrOguPsYWJwDd9/LRbCJLpO9CRNx1LGyUE+7CD5i049P5FPhUhvr+7KHuqhnfbg+ttPQRWHMiIiL6Wczp4Sgs9+3vft1xSsNfsuKvzEA1T0G/5YhLJcx/yHsiLJXw50SEKPRYhkuxQdjzmq8RkSXSbyEi9h42D66ELGZ/QOlRbiHr1dbwbH5JWZcGMyY5R1xEhNQ+ERERSZIe4bduheEsuHZaEp9Gv+G91IQWJVyfhepKFSIyZEb9BdcRK7VF5gmdUURwbOWIM4oNOoD3rEMQWSR9FiKS7mJJ4ywmL9P5YwLQa/9naYOkpvg/J6CY8DVRLm7NtuI5LzhEREQ/SL42HtVzyvxYhnswOiy9Bw2ul/GPhCvTUNFV0HdZokf2epNwkr+AWCAB2yuJjq0c8UGTta+kdojIXOmvEPH5Mlb2q4SsDqIPFlMSiP5HOIGhNcRfnoaySs2AnFJKzMAlPptBRET0nSjs7+gnvm5aENfi/bHjucbXRQzfjIZu4v7LEzdUWcI7b833BNMLiY6rHAnEyFtSM0RktnRViEh6eQDjamaFXvihYmqyoMse3hFhDXHWKERk7YG9YVIHiIiICAhdjBoKDMZzdNqu6ccy/uciuniI+y9bCs8Bf3c308dd6JJDcExlSUn8FiO1Q0RmSx+FCMNHXFjWDSX93WQqQvwvrvV+x0epCVJP8u1ZKKvQklkpxqsFNryROkBERJTuheHwuGrILLpmWpjCk+5IbWjZbYwMFPdftmRqjk3vpObIJLGX56CWj+CYypH8E3BPaoeIzGf3hYikNycwt01+2SdR+ivudbHmrdQQqSZ8XxdkE70eiqYopj+UOkBERJTehf6CSll0guulpfFA8322ME3jSyypoBf0X8boc6P10htctctksbi9ugsKOQuOqQwpMPIsJxIlkoGdFiKS8PnhKayf1BnV8mWEg+BDRJ54oEjnpbgWLTVLygs/jIHBDoLXQunoUOsoZ6skIiICEvFH/0DBtdLyOOXrgUNfpGY0LRrH+mQX7oN80SNTkTbYxUkrTZNwAws7FYe38JhaGNcyGH38k9QQEVnCvgoRhjiE3TuOtRM7o7yfWoPVjCg3aDMexkt9IMUkvTyC6S0KwE34OiifTH2vST0hIiJKx6KOoE+Q+FppURxzofH0PxAlNaNtBoSubKjMYPeHeKHlfv7+bpJny1EvqxJ362SAT62Z+NMmCmVE2mf7hYjkL3j+507MH9QMZXN7w0HtSQz/ihOyBDfEsFVn8CyGv5rLKxZvru7C/P51UTCjwrdAphXPkujz+zk8jeJrTERE6VUS7q/ujEIuguukpfFvgiW3beeXneg/56NFHkfxvsgYvx6nkCC1SWmLO9QWGQXHUY7kH3YW/O2RSB42V4hITojG5zehuHX+CLaumImRPZuiQgE/uFulAPHfOCNvo+4Yu2gLTtx8gfB4DlhNYkhGYlw0It4/w91LJ7Bz1WyM+vb65veDmyZe36/xyoWS9bth3LJdOPvgHb7EJiCJLzMREaUXYdvQyl9wfZQhDsUn4HKi1I4tCDuD2Y0DZZ0IXRSnUuNxnjdFGO3ZnGLQCY6j5fFAs122cb8OkS3QRCEi8cs7PLp/D/fu/TfXcHLXGsybMApD+vdEl9pFkNVVmVut5I8eHjlKoU6zjugzfDIWbdiPc7e/7tP9+7j/+C0i45OlvbdDhjiEv/i6nz+9nv/m9vVLOH/6EDYvnYohXdqhReN6qFk6CJlt5vWVonNBlvwVUat+U7Rq3x2Dxs3E4rXbcPD0JdwW7PeP+XqMnn9EdCIrGUREZBseTSkkvh7KELcGW2FT0yEY3mJP/xA4CfZF1mSpguE7noHfFowRh6OdM4uPo8UpjNkvpGaIyGLWLUQkXsOM2jVRvVoVVCqSAxmdbWwQanJ0cPbJiWJVaqFBszboPHgKlmw6hId2dL9d2O5uqFWjOqpWLof8fu4KThRq63GAu18+lK1eH83adUOfPn3Rr39/bAm1pZ+CiIgoXYm9jKkV3ATXNDnihCrLbW8psidLaqowd5UOBQYcQJjUJqXCcB8LqinzHtXl6oFjvDOFSDZWLUQ8HJ9beKKnr+iRvdcx+1gGKHY3GivxzGh6Ss7u2PtZOp5ERESaYcCDRS0R5Ci4dskQt5xVMD9UasqGJJzsjiyC/ZE7+kpzcDNJapRSlPxyK3oWVGDCeodsqNx/K95I7RCR5axYiAjDjnZ+4pM9ncW32VrYw51enw4NQGG9eB8Z4+IS3A1r78ZIR5SIiEgjEk6jdzbxtcvyeKNM/014bovPHkTuQksv0T7JGxYijGHA22NTUC9AgTusfWti0smPUjtEJAerFSKSn2/HgBJK3d5nW/GoswxPpeNis5LvY0mLHApNDpR+4lO2L9Ze54LhRESkMXfGIZ/guiVLHItg+AlbnQTwFVbXcxfvl4xxr78MDzlJRBoicGZaXWRVYIJzfchwnIyWmiEiWVipEJGMmzPqI5+7+GRPb3Fuegg2PzNA6C+o6CTeP8b4eFeZhNOsQxARkcbE/jEcwUrd9ejdErsipYZsThLuLGqCbKL9ki0ZUWH4IXySWqQUJN/DopquguNneVzrrsd7qRkikoeVChGvsaisMh8UtpjA8Y+l42K7Yg+0gLtg3xjTkrHhKtu/O4aIiOxO7NlRKOYgvnZZGtf6G2DL0yMlv9yOXoUdhfsmS/xqYvwh25vIU3UfN6KRQj9yFpp8X2qEiORinUKE4Sza8W4IKTkw4Ey8dGBs18fFIYJ9Y0yNX5cj4AwRRESkNYZbk1FciTsivEqg7wlbv/JFYFdbX/H+yRB98DA+FmAEw/mu8BYcP4vjnhfDrvC5GCK5WacQEbkJtXgb//+Sqxf22fzcNwZcH5FLvH+MCdGj7KKX0jElIiLSkNeLUE72QoQD8nZcjXt2sHL158314SrcR0vjgLJzH0mtUGqST7VW4DVwRaG2C3GbE4USyc4qhQjD3dko7yw62dNbfFFt3CG8tfki62tsaJtNsH+MacmOAX8mS8eUiIhIQ75sRDXZCxF+aLfLTtas/rgW1fydBftoWdyCGmIL544ySvLZjvAUHEOLoiuEobwdhUgRVilExF8YicIKzGhrc9HlRZ+D4dJRsWVPsbyep3gfGeMT0BZbuTIUERFpUdIxtJH5sVr36ksQKm3e9kXi5OS6yCbn99uMFTF81zPwJwojPZuOAjKPL3xabIc9fFMn0iKrFCKSrk9BKUfxCZ+u4tEIG8Okg2LTPmJLq0zifWSMTGZUGroNfDCDiIi06QEm5Rddv8yLc/42+OW6HTyT8b1Pu9ElQLy/JsfBG8WHHIJdfE1US/xRdMrnDb3oeJoR55w1MP4654YgUop15ojAFxwfXCx9r7LgnBv1l9vP7wAIXYa62XTifWXSTMZyg7Et1M6+kBERkV15urIRfATXMJPjUQFjj9nnYpQvllSyfJ4C53xoveAcwjgGNpEBL7b3RTEXwTE1NY750GHVbcRJWyYi+VmpEPFV/FOcXj0CTUuVRflKVVGjTkM0a90BPYZNxoI127Ft21Zs3bIFWzSWrdu2YfvGVVg0ayKG9+mIZrUrolKVqqheoyZq1kwrddCoeVt06j8X2y88hc0umZ2Cj7f2YG6PqihdriKqVPt7n6ujWtXKqFSjGboOnYrFy1Zi7e+bhcfWtvL1/fn1vbBlwWh0qV8aJctUQOXq37/WaaTG1+NSpTIq1m6FniNm4PdrvPGPiIg0zvAKW7rkgU40cDMyer8K6L38BmKlTdqd6GMYXjsnnAT7bkycMuVDxZEH8E7aHJnqDTa29hMeW2Pj4JUDJbpvxBM+E0OkKOsVIoiIiIjItiTdwpza/mYVI/T+1TDuiP0PsWNvLEOrXHrhMUg5evhV6I1lZ9+CCzRYKO4q5rcpDDfhcU49GUu2w9RdtxDOu1GIFMdCBBEREREZLz4UeyY2QO7s/vD19ki1KOHh44+c+YuhwdCVOPU0RtqA/Qs7uwAjOtdHmXyByJk7D4Jyf3ecnPyQNyg3cuXMgaBCxVCmckuMWnkCDyM4+pVNwmPsGF4VIflyIquv60/vy3/jAq9MfsiepxTaT9uN2+EsAxGphYUIIiIiIjJZXFgoLh9Yi5mD26Fm8bzIm/e7hFRFy36T8evBG3gdnV4H2EkIf3gZF/44iaMHtmP90jmYNH0hVm3ag8PHz+D8n1fxIpLzQykq8TMen92K+UNaouL378+vKVC+MbqPXYjtZx/iIyeDIFIdCxFEREREZAEDkuKiEBUZgYjwr4mMRFRM4tf/SqQdSbHR+BIVifCv79HIyChEJ3ASCCJrYiGCiIiIiIiIiFTDQgQRERERERERqYaFCCIiIiIiIiJSDQsRRERERERERKQaFiKIiIiIiIiISDUsRBARERERERGRaliIICIiIiIiIiLVsBBBRERERERERKphIYKIiIiIiIiIVMNCBBERERERERGphoUIIiIiIiIiIlINCxFEREREREREpBoWIoiIiIiIiIhINSxEEBEREREREZFqWIggIiIiIiIiItWwEEFEREREREREqmEhgoiIiIiIiIhUw0IEEREREREREamGhQgiIiIiIiIiUg0LEURERERERESkGhYiiIiIiIiIiEg1LEQQERERERERkWpYiCAiIiIiIiIi1bAQQURERERERESqYSGCiIiIiIiIiFTDQgQRERERERERqYaFCCIiIiIiIiJSCfD/ZxAf+EdDArkAAAAASUVORK5CYII=;" vertex="1" parent="1">
          <mxGeometry x="-1980" y="1040" width="239.62" height="65" as="geometry" />
        </mxCell>
      </root>
    </mxGraphModel>
  </diagram>
</mxfile>
